# xmcd
#
# Track frame offsets:
#	150
#	11474
#	37248
#	57233
#	75026
#	98500
#	115487
#	122160
#	140593
#	164440
#	180215
#	198733
#	212302
#	218585
#	242258
#	250175
#	263295
#
# Disc length: 3618 seconds
#
# Revision: 1
# Processed by: cddbd v1.5.2PL0 Copyright (c) Steve Scherf et al.
# Submitted via: audiograbber 1.83.01
#
DISCID=d40e2011
DTITLE=Saulo Laranjeira - Assunta Brasil (Causos, poemas and cantigas)
DYEAR=2006
DGENRE=Sertanejo
TTITLE0=Acredito no futuro
TTITLE1=Viola quebrada
TTITLE2=Do Brasil
TTITLE3=Paisagem do interior
TTITLE4=Vida sertaneja - Cante lá que eu canto cá
TTITLE5=O amor de Sêo Tiburço
TTITLE6=Colhendo estrelas
TTITLE7=Grande sertão: Veredas (trecho)
TTITLE8=Cantoria certeira
TTITLE9=Meus amô
TTITLE10=Papai Noel
TTITLE11=Maria da Conceição
TTITLE12=Mulheres de Minas
TTITLE13=O Jardineiro - contos populares
TTITLE14=Povo mineiro
TTITLE15=A caçada
TTITLE16=Assunta Brasil
EXTD=
EXTT0=
EXTT1=
EXTT2=
EXTT3=
EXTT4=
EXTT5=
EXTT6=
EXTT7=
EXTT8=
EXTT9=
EXTT10=
EXTT11=
EXTT12=
EXTT13=
EXTT14=
EXTT15=
EXTT16=
PLAYORDER=
